var gentilis = {"glyphs":{"S":{"x_min":79.515625,"x_max":600,"ha":661,"o":"m 600 255 q 591 193 600 225 q 567 130 583 161 q 525 72 550 99 q 467 24 501 45 q 391 -7 433 4 q 298 -20 349 -20 q 249 -15 276 -20 q 195 -2 223 -10 q 140 18 167 6 q 89 46 112 30 q 81 69 84 48 q 79 116 79 89 q 81 172 79 144 q 89 219 83 201 l 116 216 q 155 147 132 176 q 207 98 179 117 q 268 70 235 79 q 336 61 301 61 q 397 73 366 61 q 452 107 428 86 q 492 158 476 129 q 508 219 508 187 q 489 290 508 261 q 441 343 471 320 q 374 385 412 366 q 297 421 336 403 q 219 460 257 440 q 152 508 181 480 q 104 570 122 535 q 86 655 86 606 q 92 701 86 676 q 111 750 98 725 q 146 797 125 774 q 198 837 168 820 q 267 864 228 854 q 356 875 307 875 q 417 870 387 875 q 475 857 448 865 q 523 837 502 849 q 557 812 545 826 q 558 796 562 808 q 544 770 553 784 q 524 743 535 756 q 505 722 513 729 l 480 726 q 440 763 461 748 q 398 789 420 779 q 356 802 377 798 q 316 807 335 807 q 251 795 278 807 q 207 766 224 783 q 182 728 190 749 q 174 687 174 706 q 192 631 174 655 q 240 585 210 606 q 308 546 270 565 q 387 508 346 528 q 465 465 427 488 q 533 412 503 442 q 581 344 563 382 q 600 255 600 306 "},"/":{"x_min":33.234375,"x_max":616.5,"ha":652,"o":"m 143 -192 q 125 -202 136 -197 q 102 -211 114 -207 q 78 -220 90 -216 q 58 -227 66 -224 l 33 -210 l 508 1051 q 549 1071 526 1063 q 591 1085 571 1079 l 616 1070 l 143 -192 "},"K":{"x_min":33.65625,"x_max":796.46875,"ha":803,"o":"m 33 0 l 33 29 q 105 49 79 38 q 132 70 132 61 l 132 783 q 107 804 132 791 q 33 825 82 816 l 33 855 l 339 855 l 339 825 q 267 804 293 816 q 241 783 241 793 l 241 438 l 518 765 q 538 794 534 783 q 535 811 542 805 q 511 820 528 817 q 468 825 494 823 l 468 855 l 753 855 l 753 825 q 714 820 731 823 q 683 813 697 817 q 659 802 670 808 q 637 783 647 795 l 340 455 l 668 85 q 694 64 680 72 q 724 54 708 57 q 757 51 740 51 q 791 53 774 51 l 796 24 q 716 0 756 11 q 643 -10 675 -10 q 608 -3 623 -10 q 579 19 593 2 l 241 433 l 241 70 q 265 50 241 62 q 339 29 289 38 l 339 0 l 33 0 "},"7":{"x_min":70.53125,"x_max":600.234375,"ha":652,"o":"m 600 791 q 537 643 569 718 q 475 496 505 568 q 417 355 444 423 q 365 226 389 287 q 323 116 342 166 q 293 30 304 66 q 243 1 269 13 q 183 -20 217 -11 l 155 2 q 261 200 214 106 q 347 382 307 294 q 423 556 387 471 q 497 729 459 642 l 189 729 q 169 728 179 729 q 149 719 160 727 q 127 690 139 710 q 101 630 115 669 l 70 642 q 75 682 72 658 q 83 730 79 705 q 91 778 87 755 q 99 817 95 802 l 577 817 l 600 791 "},"d":{"x_min":54,"x_max":712.796875,"ha":722,"o":"m 712 57 q 657 21 681 36 q 615 -2 633 7 q 584 -15 597 -11 q 561 -20 571 -20 q 525 10 539 -20 q 506 114 510 41 q 454 58 480 83 q 402 16 429 33 q 346 -10 375 -1 q 281 -20 316 -20 q 203 2 243 -20 q 130 65 163 24 q 75 166 96 106 q 54 301 54 226 q 64 381 54 339 q 94 461 75 422 q 142 534 114 499 q 206 595 171 568 q 283 636 241 621 q 373 651 325 651 q 436 643 405 651 q 505 608 468 635 l 505 863 q 502 923 505 901 q 491 957 500 945 q 462 973 481 968 q 406 980 442 977 l 406 1006 q 506 1026 462 1014 q 585 1051 550 1039 l 607 1030 l 607 172 q 608 131 607 148 q 611 103 609 114 q 615 84 613 91 q 622 72 618 76 q 645 67 628 64 q 703 86 663 70 l 712 57 m 505 177 l 505 494 q 441 554 482 533 q 352 576 401 576 q 273 560 309 576 q 211 512 237 544 q 170 433 185 480 q 156 322 156 385 q 172 217 156 264 q 214 137 189 170 q 271 85 240 103 q 330 68 302 68 q 375 77 353 68 q 419 102 397 86 q 462 137 441 117 q 505 177 484 156 "},",":{"x_min":59.40625,"x_max":264,"ha":318,"o":"m 264 47 q 253 -12 264 20 q 223 -80 243 -45 q 175 -147 203 -114 q 112 -207 147 -180 l 81 -183 q 114 -141 100 -161 q 136 -99 127 -120 q 148 -53 144 -77 q 153 0 153 -29 q 133 47 153 29 q 70 62 113 64 l 59 94 q 85 112 65 102 q 128 133 104 123 q 174 149 151 142 q 209 155 197 155 q 252 112 241 139 q 264 47 264 86 "},"Y":{"x_min":-0.390625,"x_max":797.6875,"ha":825,"o":"m 243 0 l 243 29 q 330 55 305 42 q 355 78 355 68 l 355 364 q 298 478 329 419 q 232 594 266 538 q 168 699 199 651 q 113 780 137 748 q 99 794 107 788 q 79 806 91 801 q 49 814 67 811 q 2 818 30 818 l 0 847 q 79 856 39 852 q 148 861 119 861 q 201 834 179 861 q 255 757 226 802 q 313 663 284 713 q 370 562 342 614 q 422 461 398 509 l 604 780 q 597 808 614 797 q 529 825 581 818 l 529 855 l 797 855 l 797 825 q 726 807 750 816 q 691 780 701 797 l 464 366 l 464 77 q 469 68 464 73 q 488 55 475 62 q 523 42 501 48 q 576 29 544 35 l 576 0 l 243 0 "},"E":{"x_min":33.65625,"x_max":647.265625,"ha":689,"o":"m 647 165 q 633 63 641 107 q 619 0 624 19 l 33 0 l 33 29 q 105 49 79 38 q 132 70 132 61 l 132 783 q 107 804 132 791 q 33 825 82 816 l 33 855 l 580 855 l 603 838 q 599 799 601 820 q 592 757 596 778 q 583 717 588 736 q 575 685 579 698 l 544 685 q 539 737 543 716 q 527 771 534 758 q 511 788 521 783 q 489 794 501 794 l 241 794 l 241 499 l 515 499 l 533 480 q 520 459 527 470 q 503 438 512 448 q 486 418 495 427 q 470 404 478 410 q 448 421 460 414 q 421 433 437 428 q 385 439 406 437 q 336 442 365 442 l 241 442 l 241 104 q 245 86 241 94 q 265 72 250 78 q 307 64 280 67 q 379 61 334 61 l 466 61 q 520 64 498 61 q 559 79 542 67 q 589 114 576 91 q 618 177 603 137 l 647 165 "},"y":{"x_min":-31.875,"x_max":670.765625,"ha":685,"o":"m 670 601 q 637 593 650 597 q 616 583 624 588 q 603 572 608 578 q 596 555 599 565 l 369 -55 q 306 -184 341 -130 q 233 -272 271 -237 q 158 -322 196 -306 q 86 -339 120 -339 q 38 -335 60 -339 q 1 -327 16 -332 q -23 -315 -14 -322 q -31 -303 -31 -309 q -23 -286 -31 -298 q -3 -259 -15 -274 q 22 -231 8 -245 q 47 -211 36 -218 q 112 -231 80 -230 q 169 -223 144 -233 q 198 -204 181 -219 q 230 -168 214 -189 q 263 -118 247 -146 q 291 -62 279 -91 l 311 -15 l 88 555 q 65 584 82 574 q 13 601 47 594 l 13 631 l 275 631 l 275 601 q 232 595 248 598 q 206 586 215 591 q 196 574 197 581 q 198 555 194 566 l 365 123 l 522 555 q 523 573 525 565 q 511 585 520 580 q 485 594 502 590 q 444 601 469 597 l 444 631 l 670 631 l 670 601 "},"\"":{"x_min":108.515625,"x_max":482.21875,"ha":590,"o":"m 209 565 q 196 559 204 562 q 179 555 188 557 q 161 552 170 553 q 144 551 152 551 l 108 967 q 130 977 115 971 q 159 988 144 982 q 188 998 174 993 q 209 1004 202 1002 l 238 989 l 209 565 m 453 565 q 439 559 447 562 q 422 555 432 557 q 404 552 413 553 q 387 551 395 551 l 351 967 q 372 977 358 971 q 402 988 386 982 q 431 998 417 993 q 453 1004 445 1002 l 482 989 l 453 565 "},"g":{"x_min":20,"x_max":670.8125,"ha":678,"o":"m 468 406 q 456 474 468 442 q 420 531 444 507 q 362 569 397 555 q 282 583 327 583 q 244 574 265 583 q 205 548 224 565 q 175 505 187 531 q 163 446 163 479 q 174 378 163 410 q 208 322 185 346 q 265 284 230 298 q 348 271 300 271 q 389 279 368 271 q 428 305 411 287 q 456 347 445 322 q 468 406 468 372 m 351 -2 q 303 3 325 0 q 263 10 282 6 q 186 -36 214 -15 q 143 -74 157 -57 q 125 -104 129 -90 q 122 -128 122 -118 q 140 -182 122 -157 q 191 -226 159 -208 q 265 -256 223 -245 q 353 -268 307 -268 q 436 -255 399 -268 q 500 -222 473 -243 q 541 -171 526 -200 q 556 -106 556 -141 q 547 -71 556 -87 q 515 -42 538 -55 q 452 -19 492 -29 q 351 -2 412 -9 m 563 434 q 539 339 563 382 q 478 265 516 296 q 392 217 440 234 q 294 200 343 200 l 291 200 q 246 154 259 172 q 234 132 234 136 q 241 116 234 124 q 268 102 248 109 q 321 87 287 94 q 408 74 355 80 q 530 50 482 66 q 607 12 578 33 q 646 -33 635 -8 q 658 -81 658 -57 q 643 -152 658 -118 q 605 -214 629 -185 q 547 -265 580 -242 q 476 -305 514 -288 q 397 -330 438 -321 q 316 -339 356 -339 q 250 -334 284 -339 q 183 -320 216 -330 q 120 -296 150 -311 q 68 -261 91 -282 q 33 -214 46 -240 q 20 -155 20 -188 q 26 -118 20 -137 q 52 -76 32 -98 q 107 -28 72 -54 q 201 28 142 -2 q 140 63 157 44 q 123 103 123 83 q 126 118 123 109 q 140 140 129 127 q 170 170 150 153 q 220 209 189 187 q 158 236 186 218 q 110 280 130 254 q 79 337 90 305 q 68 408 68 370 q 90 502 68 457 q 149 579 112 546 q 232 631 185 612 q 329 651 279 651 q 405 639 369 651 q 470 606 440 627 q 533 615 505 610 q 585 627 562 621 q 625 639 607 633 q 657 651 643 645 l 670 630 q 655 595 662 611 q 632 562 647 579 q 581 555 606 558 q 525 551 556 552 q 553 496 543 525 q 563 434 563 467 "},"e":{"x_min":54,"x_max":588,"ha":642,"o":"m 336 580 q 271 566 301 580 q 219 527 242 552 q 181 468 196 503 q 160 393 166 434 l 451 393 q 471 398 466 393 q 477 417 477 403 q 471 463 477 435 q 451 517 466 490 q 408 561 436 543 q 336 580 381 580 m 588 377 q 555 352 575 363 q 513 332 535 340 l 156 332 q 170 231 156 279 q 210 147 184 183 q 273 89 236 111 q 357 68 310 68 q 398 70 378 68 q 441 82 418 73 q 492 110 464 92 q 558 160 520 129 q 574 146 567 155 q 584 132 580 137 q 504 52 538 82 q 439 6 469 22 q 379 -14 409 -9 q 315 -20 350 -20 q 216 2 263 -20 q 132 65 168 24 q 75 164 96 106 q 54 294 54 222 q 64 383 54 339 q 93 467 74 428 q 140 539 113 506 q 204 597 168 573 q 237 617 219 607 q 276 634 256 627 q 317 646 297 642 q 355 651 337 651 q 434 638 399 651 q 494 605 469 626 q 538 557 520 585 q 567 499 556 530 q 583 437 578 469 q 588 377 588 405 "},"J":{"x_min":-129.421875,"x_max":376.328125,"ha":424,"o":"m 376 825 q 304 804 330 816 q 278 783 278 793 l 278 139 q 266 4 278 58 q 236 -86 255 -49 q 193 -149 218 -124 q 142 -195 169 -173 q 102 -222 124 -210 q 57 -241 80 -233 q 15 -253 35 -249 q -17 -258 -4 -258 q -58 -251 -37 -258 q -94 -236 -78 -245 q -119 -219 -109 -228 q -129 -204 -129 -210 q -120 -188 -129 -198 q -99 -168 -111 -178 q -73 -148 -87 -158 q -50 -136 -60 -139 q -17 -156 -31 -148 q 8 -168 -3 -164 q 32 -173 21 -172 q 56 -175 43 -175 q 94 -163 74 -175 q 130 -122 114 -151 q 158 -41 147 -92 q 169 89 169 10 l 169 783 q 163 792 169 787 q 143 802 158 797 q 103 813 128 808 q 36 825 77 819 l 36 855 l 376 855 l 376 825 "},"|":{"x_min":122,"x_max":217,"ha":318,"o":"m 217 -239 q 183 -260 204 -250 q 145 -275 162 -269 l 122 -259 l 122 1099 q 156 1119 141 1111 q 192 1133 172 1127 l 217 1118 l 217 -239 "},"^":{"x_min":67.828125,"x_max":615.140625,"ha":684,"o":"m 615 430 q 582 404 598 414 q 543 383 566 393 l 518 401 l 326 891 l 156 430 q 139 416 149 423 q 120 403 130 409 q 100 391 109 396 q 83 383 90 386 l 67 401 l 286 991 q 306 1007 294 999 q 330 1024 318 1016 q 354 1039 342 1032 q 376 1051 366 1046 l 615 430 "},"q":{"x_min":54,"x_max":701.265625,"ha":716,"o":"m 330 68 q 375 77 353 68 q 419 102 397 86 q 462 137 441 117 q 505 177 484 156 l 505 494 q 441 554 482 533 q 352 576 401 576 q 279 560 314 576 q 216 512 244 544 q 172 433 189 480 q 156 322 156 385 q 172 217 156 264 q 214 137 189 170 q 271 85 240 103 q 330 68 302 68 m 389 -326 l 389 -296 q 479 -276 453 -287 q 505 -254 505 -266 l 505 112 q 454 56 479 81 q 402 15 429 32 q 346 -10 375 -1 q 281 -20 316 -20 q 203 2 243 -20 q 130 65 163 24 q 75 166 96 106 q 54 301 54 226 q 73 411 54 360 q 119 500 92 461 q 178 566 146 539 q 233 606 209 593 q 309 639 271 627 q 373 651 347 651 q 410 648 391 651 q 447 639 428 646 q 486 620 466 632 q 530 587 507 608 q 551 602 540 594 q 572 619 562 610 q 591 636 582 627 q 607 651 600 644 l 628 630 q 617 589 621 611 q 610 543 613 569 q 607 486 607 516 l 607 -254 q 628 -276 607 -265 q 701 -296 649 -287 l 701 -326 l 389 -326 "},"b":{"x_min":6.828125,"x_max":644,"ha":705,"o":"m 644 333 q 633 253 644 294 q 604 172 623 211 q 555 97 584 133 q 491 36 527 62 q 411 -4 454 10 q 317 -20 368 -20 q 282 -14 305 -20 q 230 2 259 -8 q 166 29 200 13 q 95 65 131 45 l 95 878 q 91 926 95 910 q 78 952 88 943 q 51 963 69 960 q 6 969 34 966 l 6 996 q 92 1018 51 1007 q 171 1051 133 1029 l 178 1044 q 186 1036 182 1040 q 197 1027 191 1032 l 196 493 q 264 563 230 533 q 328 612 297 593 q 385 641 359 632 q 431 651 412 651 q 516 629 477 651 q 584 566 555 607 q 628 466 612 525 q 644 333 644 407 m 552 276 q 538 396 552 344 q 500 485 524 449 q 447 540 477 521 q 384 559 416 559 q 352 551 372 559 q 307 528 332 544 q 253 483 282 511 q 197 413 225 455 l 197 137 q 252 103 224 117 q 305 82 280 90 q 351 71 330 74 q 384 68 372 68 q 456 85 425 68 q 509 133 487 103 q 541 200 530 162 q 552 276 552 237 "},"D":{"x_min":27.5625,"x_max":761,"ha":823,"o":"m 307 818 q 241 816 273 818 l 241 104 q 248 80 241 89 q 284 62 257 68 q 364 57 311 57 q 460 79 411 57 q 551 148 510 102 q 619 265 593 195 q 646 432 646 336 q 623 593 646 522 q 558 715 601 665 q 451 791 515 765 q 307 818 388 818 m 761 458 q 743 306 761 373 q 697 188 726 240 q 629 102 668 137 q 548 43 591 66 q 462 10 506 21 q 378 0 418 0 l 33 0 l 33 29 q 105 49 79 38 q 132 70 132 61 l 132 805 q 80 799 104 802 q 33 792 56 795 l 27 834 q 96 849 57 842 q 178 863 135 857 q 266 871 222 868 q 350 875 310 875 q 521 846 445 875 q 650 765 596 818 q 732 634 703 711 q 761 458 761 556 "},"z":{"x_min":51.546875,"x_max":562.25,"ha":614,"o":"m 562 168 q 561 122 562 146 q 559 74 560 97 q 557 31 558 51 q 554 0 556 12 l 69 0 l 51 30 l 427 570 l 193 570 q 171 565 182 570 q 149 550 160 561 q 129 519 139 539 q 113 468 120 499 l 80 476 l 92 642 q 120 635 107 637 q 145 632 132 633 q 174 631 158 631 l 545 631 l 560 601 l 183 61 l 469 61 q 500 87 486 61 q 530 174 514 113 l 562 168 "},"w":{"x_min":13.5625,"x_max":966.46875,"ha":981,"o":"m 966 601 q 933 592 945 597 q 913 583 921 588 q 903 573 906 579 q 898 559 900 567 l 748 40 q 732 14 744 25 q 706 -2 720 4 q 678 -13 692 -9 q 655 -20 664 -17 l 494 439 l 355 40 q 338 14 349 24 q 314 -3 327 3 q 287 -14 300 -10 q 265 -20 274 -17 l 87 559 q 13 601 81 586 l 13 631 l 275 631 l 275 601 q 223 594 242 598 q 197 583 205 589 q 188 572 189 578 q 190 559 188 565 l 318 129 l 484 631 l 531 631 l 708 129 l 825 559 q 811 584 829 575 q 746 601 792 594 l 746 631 l 966 631 l 966 601 "},"$":{"x_min":59.6875,"x_max":585,"ha":652,"o":"m 153 649 q 163 604 153 624 q 193 569 174 585 q 238 541 212 554 q 293 517 263 529 l 293 756 q 227 745 253 755 q 183 720 200 735 q 160 686 167 705 q 153 649 153 668 m 493 219 q 482 276 493 251 q 452 319 471 300 q 407 352 433 337 q 354 378 382 366 l 354 76 q 406 92 381 80 q 450 122 431 103 q 481 165 469 141 q 493 219 493 190 m 354 -96 q 343 -105 347 -102 q 334 -110 339 -108 q 324 -114 330 -112 q 311 -118 319 -115 l 293 -103 l 293 -6 q 232 -1 260 -6 q 178 10 204 2 q 125 32 151 19 q 69 65 99 46 q 62 87 64 68 q 59 132 59 107 q 61 184 59 158 q 69 230 63 211 l 98 228 q 181 121 130 158 q 293 77 231 85 l 293 402 q 210 434 251 417 q 138 475 170 451 q 86 533 106 500 q 67 618 67 567 q 78 679 67 646 q 115 741 89 712 q 185 791 142 770 q 293 820 228 813 l 293 920 q 306 928 302 925 q 314 932 310 930 q 321 935 317 934 q 336 939 326 936 l 354 924 l 354 823 q 414 818 385 822 q 469 806 444 814 q 516 786 495 797 q 550 762 536 775 q 548 745 554 757 q 534 718 543 732 q 513 689 524 703 q 493 666 501 675 l 466 672 q 410 722 439 703 q 354 749 382 741 l 354 493 q 437 458 396 477 q 511 412 479 439 q 564 347 544 384 q 585 255 585 309 q 570 173 585 215 q 526 95 555 130 q 454 32 497 59 q 354 -2 411 6 l 354 -96 "},"\\":{"x_min":37.296875,"x_max":613.796875,"ha":652,"o":"m 590 -227 q 571 -220 581 -224 q 549 -211 560 -216 q 528 -202 538 -207 q 512 -192 518 -197 l 37 1070 l 62 1085 q 139 1051 101 1074 l 613 -210 l 590 -227 "},"~":{"x_min":33.234375,"x_max":644.3125,"ha":678,"o":"m 644 525 q 608 456 630 492 q 559 391 586 421 q 502 343 533 362 q 438 324 471 324 q 378 341 410 324 q 313 378 346 358 q 248 415 280 398 q 187 433 216 433 q 125 406 153 433 q 69 322 97 379 l 33 340 q 69 409 47 373 q 118 475 91 445 q 175 523 145 504 q 238 543 206 543 q 302 525 269 543 q 367 488 335 508 q 431 451 400 468 q 489 434 461 434 q 550 460 521 434 q 608 542 579 486 l 644 525 "},"-":{"x_min":41.375,"x_max":426.609375,"ha":468,"o":"m 426 370 q 416 338 422 355 q 405 309 411 320 l 58 309 l 41 325 q 50 356 44 340 q 62 387 56 373 l 409 387 l 426 370 "},"Q":{"x_min":47,"x_max":869.4375,"ha":834,"o":"m 667 426 q 658 519 667 473 q 634 606 650 565 q 596 682 618 647 q 544 742 573 716 q 482 782 516 767 q 409 797 448 797 q 301 771 349 797 q 220 698 253 746 q 169 584 187 651 q 152 434 152 517 q 172 290 152 358 q 228 171 193 223 q 310 90 263 120 q 409 61 357 61 q 513 84 465 61 q 594 153 560 107 q 647 268 628 200 q 667 426 667 337 m 869 -79 q 836 -132 853 -109 q 802 -172 819 -156 q 772 -198 786 -189 q 747 -207 757 -207 q 664 -186 705 -207 q 582 -135 623 -165 q 501 -74 541 -106 q 420 -18 461 -41 q 389 -20 404 -20 q 252 14 315 -20 q 143 108 188 49 q 72 246 97 167 q 47 415 47 325 q 76 590 47 507 q 158 737 106 674 q 279 837 209 800 q 429 875 349 875 q 577 838 513 875 q 684 740 640 801 q 749 600 727 679 q 772 438 772 521 q 752 299 772 367 q 700 176 733 232 q 619 76 666 119 q 518 8 573 32 q 580 -28 549 -8 q 641 -66 611 -48 q 698 -96 670 -84 q 751 -109 726 -109 q 768 -106 759 -109 q 789 -97 777 -103 q 815 -81 800 -91 q 851 -56 830 -71 l 869 -79 "},"M":{"x_min":40.6875,"x_max":1064.8125,"ha":1120,"o":"m 1051 825 q 1007 819 1031 825 q 959 801 983 812 l 966 70 q 991 50 966 62 q 1064 29 1015 38 l 1064 0 l 756 0 l 756 29 q 831 49 802 38 q 861 70 861 61 l 855 705 l 558 0 l 524 0 l 223 700 l 217 70 q 241 50 217 62 q 315 29 266 38 l 315 0 l 40 0 l 40 29 q 113 49 87 38 q 139 70 139 61 l 145 798 q 93 819 120 813 q 47 825 67 825 l 47 855 l 241 855 q 252 852 248 855 q 262 844 257 850 q 271 827 266 838 q 284 798 276 816 l 554 185 l 813 798 q 828 829 822 818 q 837 846 833 841 q 846 853 842 852 q 857 855 851 855 l 1051 855 l 1051 825 "},"C":{"x_min":48,"x_max":690.84375,"ha":745,"o":"m 690 143 q 607 65 647 96 q 531 15 568 34 q 458 -11 494 -3 q 387 -20 422 -20 q 263 8 324 -20 q 155 90 203 36 q 77 221 106 144 q 48 397 48 299 q 80 594 48 506 q 169 744 113 682 q 300 841 226 807 q 458 875 375 875 q 587 855 532 875 q 677 806 642 835 q 675 793 682 803 q 659 770 669 783 q 636 744 648 757 q 616 723 625 731 l 593 727 q 511 779 558 759 q 401 800 463 800 q 351 791 378 800 q 296 764 323 783 q 242 716 268 746 q 196 645 216 687 q 164 548 176 603 q 153 422 153 492 q 179 264 153 332 q 246 151 205 196 q 337 83 287 106 q 436 61 388 61 q 532 86 473 61 q 665 173 591 111 q 672 167 669 172 q 679 158 676 163 q 686 149 683 153 q 690 143 688 145 "},"[":{"x_min":95,"x_max":400.25,"ha":428,"o":"m 400 -168 q 391 -198 396 -182 q 380 -227 386 -215 l 95 -227 l 95 1085 l 376 1085 l 398 1067 q 390 1032 395 1050 q 380 1007 384 1015 l 190 1007 l 190 -149 l 376 -149 l 400 -168 "},"L":{"x_min":33.65625,"x_max":640.484375,"ha":661,"o":"m 640 165 q 626 63 635 106 q 612 0 618 19 l 33 0 l 33 29 q 105 49 79 38 q 132 70 132 61 l 132 783 q 107 804 132 791 q 33 825 82 816 l 33 855 l 339 855 l 339 825 q 267 804 293 816 q 241 783 241 793 l 241 111 q 246 89 241 99 q 266 74 252 80 q 305 64 281 67 q 367 61 329 61 l 464 61 q 516 64 495 61 q 554 79 538 67 q 583 114 570 91 q 611 177 597 137 l 640 165 "},"!":{"x_min":103,"x_max":264,"ha":378,"o":"m 264 83 q 256 39 264 59 q 237 4 249 19 q 207 -18 224 -10 q 170 -27 190 -27 q 118 -7 134 -27 q 103 48 103 12 q 110 91 103 71 q 130 127 117 111 q 160 151 143 142 q 197 160 178 160 q 247 140 230 160 q 264 83 264 120 m 221 264 q 198 248 208 254 q 170 237 187 243 l 151 251 l 119 948 q 173 979 145 965 q 225 1004 202 994 l 254 987 l 221 264 "}," ":{"x_min":0,"x_max":0,"ha":306},"{":{"x_min":69.578125,"x_max":440.796875,"ha":467,"o":"m 440 1053 q 391 1015 414 1036 q 351 969 368 994 q 325 914 334 943 q 316 848 316 884 q 320 784 316 809 q 330 737 324 759 q 339 690 335 715 q 344 625 344 665 q 335 569 344 597 q 311 518 327 542 q 273 474 295 494 q 222 442 250 454 q 279 421 255 436 q 316 382 302 406 q 337 329 331 359 q 344 260 344 298 q 339 191 344 220 q 330 138 335 163 q 320 87 324 112 q 316 28 316 62 q 321 -37 316 -8 q 339 -89 326 -66 q 375 -132 352 -112 q 434 -172 398 -152 l 418 -214 q 320 -165 361 -190 q 253 -108 279 -140 q 215 -38 227 -77 q 203 48 203 0 q 207 114 203 88 q 217 164 211 140 q 226 216 222 188 q 231 285 231 243 q 203 369 231 340 q 125 397 176 397 l 110 397 q 103 396 106 397 q 95 395 100 396 q 81 393 91 394 l 69 429 q 190 492 149 450 q 231 585 231 534 q 228 631 231 612 q 223 667 226 651 q 217 697 220 683 q 210 726 213 711 q 205 762 207 742 q 203 810 203 782 q 218 896 203 855 q 262 970 233 936 q 331 1033 290 1004 q 423 1085 372 1061 l 440 1053 "},"X":{"x_min":21.03125,"x_max":833.53125,"ha":855,"o":"m 527 0 l 527 29 q 575 36 557 31 q 602 46 594 40 q 609 62 610 53 q 598 86 608 72 l 409 363 l 238 86 q 241 44 219 56 q 326 29 263 33 l 326 0 l 21 0 l 21 29 q 96 44 65 32 q 144 86 127 57 l 359 437 l 133 768 q 113 793 123 783 q 92 809 104 802 q 65 818 80 815 q 27 826 50 822 l 27 855 l 333 855 l 333 826 q 258 809 276 820 q 261 768 240 798 l 428 522 l 581 768 q 590 794 591 784 q 577 810 588 804 q 544 820 565 817 q 493 826 523 823 l 493 855 l 800 855 l 800 826 q 756 819 775 823 q 722 809 737 815 q 696 793 707 802 q 676 768 685 783 l 478 449 l 726 86 q 747 61 736 71 q 770 45 757 52 q 798 35 782 39 q 833 29 813 31 l 833 0 l 527 0 "},"P":{"x_min":27.5625,"x_max":666,"ha":726,"o":"m 33 0 l 33 29 q 105 49 79 38 q 132 70 132 61 l 132 807 q 82 800 106 803 q 33 792 57 796 l 27 834 q 98 850 60 843 q 178 863 136 858 q 261 871 219 868 q 345 875 304 875 q 478 859 419 875 q 578 813 537 843 q 643 738 620 782 q 666 634 666 693 q 652 549 666 588 q 617 480 639 510 q 566 428 595 450 q 507 391 538 406 q 445 370 476 377 q 388 363 414 363 q 279 383 324 363 l 263 434 q 318 417 292 421 q 368 414 344 414 q 433 426 399 414 q 495 462 467 438 q 542 523 524 487 q 561 607 561 559 q 541 702 561 662 q 486 768 521 742 q 405 805 451 793 q 307 818 359 818 q 273 817 290 818 q 241 817 257 817 l 241 70 q 246 61 241 66 q 265 51 251 57 q 301 40 278 46 q 359 29 324 35 l 359 0 l 33 0 "},"%":{"x_min":52,"x_max":907,"ha":959,"o":"m 810 195 q 801 278 810 243 q 778 337 793 313 q 746 371 764 360 q 708 383 727 383 q 678 373 693 383 q 652 343 664 363 q 634 294 641 323 q 627 224 627 264 q 634 139 627 175 q 655 80 641 103 q 686 45 668 57 q 726 34 704 34 q 758 44 743 34 q 784 74 773 54 q 803 125 796 95 q 810 195 810 155 m 907 209 q 890 121 907 162 q 847 48 874 79 q 783 -1 820 16 q 708 -20 747 -20 q 635 -1 669 -20 q 578 48 602 16 q 541 121 555 79 q 528 209 528 162 q 544 298 528 256 q 588 370 561 339 q 652 420 616 402 q 726 438 688 438 q 800 420 767 438 q 857 371 833 402 q 894 298 881 340 q 907 209 907 257 m 242 11 q 224 1 236 6 q 199 -7 212 -3 q 172 -16 185 -12 q 151 -23 159 -20 l 134 0 l 715 805 q 759 825 734 817 q 805 839 784 833 l 825 816 l 242 11 m 334 595 q 325 678 334 643 q 302 737 317 714 q 270 771 288 760 q 232 783 251 783 q 202 773 217 783 q 176 743 188 763 q 157 694 164 723 q 150 624 150 664 q 157 539 150 575 q 178 479 164 503 q 210 444 191 456 q 250 433 228 433 q 282 443 266 433 q 308 473 297 453 q 327 524 320 494 q 334 595 334 554 m 432 608 q 415 519 432 561 q 372 446 399 477 q 308 396 344 414 q 232 378 272 378 q 159 396 192 378 q 102 446 126 414 q 65 519 78 477 q 52 608 52 561 q 68 696 52 655 q 111 769 84 738 q 175 818 139 800 q 250 837 211 837 q 324 819 291 837 q 381 769 357 801 q 418 697 405 738 q 432 608 432 655 "},"#":{"x_min":59,"x_max":666.015625,"ha":652,"o":"m 270 400 l 398 400 l 448 574 l 320 574 l 270 400 m 546 652 l 649 652 l 666 635 q 656 602 662 620 q 644 574 650 585 l 524 574 l 474 400 l 577 400 l 592 381 q 583 350 588 368 q 573 322 578 333 l 452 322 l 393 115 q 364 98 381 105 q 330 86 348 92 l 313 99 l 376 322 l 248 322 l 189 115 q 161 98 177 105 q 128 86 145 92 l 110 99 l 173 322 l 73 322 l 59 338 q 67 369 62 352 q 79 400 73 386 l 196 400 l 245 574 l 147 574 l 130 590 q 140 621 134 605 q 151 652 146 638 l 267 652 l 324 848 q 354 864 339 859 q 383 876 368 869 l 403 861 l 343 652 l 470 652 l 526 848 q 557 864 541 859 q 588 876 572 869 l 606 861 l 546 652 "},"_":{"x_min":41.375,"x_max":608.359375,"ha":652,"o":"m 608 -105 q 599 -137 604 -120 q 588 -167 594 -154 l 58 -167 l 41 -148 q 50 -118 44 -135 q 62 -89 56 -102 l 592 -89 l 608 -105 "},"+":{"x_min":41.859375,"x_max":528.140625,"ha":570,"o":"m 324 160 q 294 147 310 153 q 262 139 277 142 l 246 153 l 246 344 l 58 344 l 41 360 q 51 389 45 374 q 62 419 56 405 l 246 419 l 246 604 q 275 614 258 608 q 307 624 292 620 l 324 608 l 324 419 l 511 419 l 528 402 q 518 372 524 389 q 507 344 513 355 l 324 344 l 324 160 "},")":{"x_min":27.65625,"x_max":359,"ha":440,"o":"m 359 450 q 336 234 359 338 q 273 42 314 129 q 175 -111 233 -45 q 48 -214 118 -177 l 27 -183 q 110 -87 71 -146 q 179 51 149 -27 q 226 225 209 129 q 244 430 244 321 q 229 622 244 528 q 188 798 215 716 q 120 946 160 880 q 27 1054 79 1012 l 48 1085 q 183 986 125 1050 q 280 840 241 923 q 339 657 319 756 q 359 450 359 557 "},"'":{"x_min":108.515625,"x_max":238.734375,"ha":347,"o":"m 209 565 q 196 559 204 562 q 179 555 188 557 q 161 552 170 553 q 144 551 152 551 l 108 967 q 130 977 115 971 q 159 988 144 982 q 188 998 174 993 q 209 1004 202 1002 l 238 989 l 209 565 "},"}":{"x_min":26.203125,"x_max":399.421875,"ha":467,"o":"m 399 441 q 278 379 318 420 q 238 285 238 338 q 240 238 238 258 q 244 203 242 219 q 251 174 247 188 q 257 145 254 161 q 262 109 260 129 q 264 62 264 89 q 248 -24 264 15 q 204 -98 233 -64 q 135 -162 176 -133 q 44 -214 94 -190 l 26 -180 q 75 -143 52 -164 q 115 -97 98 -123 q 141 -42 132 -72 q 151 23 151 -11 q 147 87 151 62 q 138 134 143 112 q 129 181 133 156 q 125 247 125 207 q 133 302 125 275 q 157 353 141 329 q 195 396 173 376 q 247 427 218 415 q 189 449 213 434 q 151 488 166 465 q 131 542 137 511 q 125 611 125 573 q 129 680 125 651 q 138 733 133 708 q 147 783 143 758 q 151 842 151 808 q 145 909 151 880 q 127 961 140 938 q 91 1004 114 985 q 32 1043 68 1023 l 48 1085 q 146 1037 105 1062 q 213 980 187 1011 q 251 911 239 949 q 264 823 264 872 q 260 757 264 783 q 251 706 256 730 q 242 655 246 682 q 238 586 238 627 q 265 502 238 531 q 343 474 292 474 l 356 474 q 364 474 360 474 q 372 475 367 475 l 387 479 l 399 441 "},"a":{"x_min":54,"x_max":628.765625,"ha":638,"o":"m 238 68 q 325 88 279 68 q 423 154 371 109 l 423 329 q 328 311 365 320 q 267 293 291 302 q 229 274 243 284 q 204 252 215 264 q 175 210 186 234 q 165 155 165 187 q 173 111 165 128 q 192 84 181 94 q 217 71 204 74 q 238 68 229 68 m 628 55 q 533 -2 571 15 q 476 -20 495 -20 q 439 11 454 -20 q 423 97 424 42 q 361 44 392 66 q 302 7 331 22 q 246 -13 272 -6 q 198 -20 220 -20 q 148 -11 174 -20 q 101 13 122 -3 q 67 59 81 31 q 54 126 54 87 q 72 212 54 177 q 115 272 90 246 q 152 302 131 288 q 207 330 172 317 q 293 356 241 344 q 423 380 344 368 l 423 475 q 417 518 423 498 q 399 553 412 538 q 364 575 386 568 q 309 583 342 583 q 266 575 287 582 q 229 556 245 568 q 205 527 214 544 q 198 490 196 511 q 184 476 199 484 q 150 462 170 469 q 110 453 130 456 q 83 452 91 450 l 73 478 q 121 543 89 512 q 194 598 153 574 q 280 636 235 622 q 369 651 326 651 q 484 612 444 651 q 525 503 525 573 l 525 120 q 532 80 525 92 q 552 68 539 68 q 576 71 561 68 q 618 86 591 74 l 628 55 "},"T":{"x_min":6.34375,"x_max":734.5625,"ha":765,"o":"m 207 0 l 207 29 q 260 42 238 35 q 294 55 281 48 q 313 67 307 61 q 319 78 319 73 l 319 794 l 116 794 q 97 790 106 794 q 80 774 89 786 q 61 738 72 762 q 35 675 50 714 l 6 688 q 15 773 9 728 q 28 855 21 819 l 714 855 l 734 838 q 727 762 733 803 q 714 678 722 721 l 683 678 q 671 731 676 709 q 659 767 666 753 q 644 787 653 781 q 620 794 634 794 l 428 794 l 428 78 q 452 55 428 69 q 539 29 476 42 l 539 0 l 207 0 "},"=":{"x_min":41.375,"x_max":568.34375,"ha":610,"o":"m 568 298 q 558 269 564 284 q 548 241 552 253 l 58 241 l 41 259 q 50 287 44 273 q 62 316 56 302 l 551 316 l 568 298 m 568 501 q 558 471 564 488 q 548 444 552 455 l 58 444 l 41 461 q 50 490 44 474 q 62 519 56 506 l 551 519 l 568 501 "},"N":{"x_min":33.65625,"x_max":867.34375,"ha":901,"o":"m 33 0 l 33 29 q 107 48 83 35 q 132 70 132 61 l 132 779 q 84 811 109 800 q 33 825 60 821 l 33 855 l 177 855 q 194 853 187 855 q 207 846 200 851 q 221 830 214 840 q 242 802 229 819 l 688 187 l 688 783 q 665 805 688 791 q 589 825 643 818 l 589 855 l 867 855 l 867 825 q 793 806 818 819 q 769 783 769 793 l 769 -20 q 716 -6 735 -15 q 689 14 697 3 l 213 673 l 213 70 q 235 49 213 62 q 311 29 258 36 l 311 0 l 33 0 "},"2":{"x_min":66.421875,"x_max":567,"ha":652,"o":"m 557 0 l 86 0 l 66 50 q 207 215 147 143 q 309 343 267 287 q 380 440 352 398 q 424 514 408 481 q 446 574 440 547 q 453 627 453 601 q 445 685 453 658 q 421 733 438 713 q 379 765 405 753 q 316 777 353 777 q 265 763 288 777 q 225 729 242 749 q 199 683 208 708 q 189 633 189 657 q 169 622 178 627 q 150 612 160 616 q 129 605 141 608 q 103 600 118 602 l 84 621 q 108 694 84 656 q 171 764 132 732 q 260 817 210 796 q 362 838 310 838 q 439 826 403 838 q 501 791 474 814 q 542 731 527 768 q 558 645 558 695 q 549 584 558 615 q 521 518 540 554 q 473 441 503 483 q 402 346 444 398 q 305 228 359 293 q 180 82 250 163 l 463 82 q 484 87 475 82 q 500 100 493 92 q 512 119 507 109 q 521 142 517 130 q 532 202 529 168 l 567 194 l 557 0 "},"j":{"x_min":-149.234375,"x_max":261,"ha":359,"o":"m 241 67 q 231 -65 241 -10 q 203 -158 221 -119 q 162 -223 186 -196 q 111 -271 139 -249 q 73 -297 93 -285 q 32 -319 52 -310 q -5 -333 12 -328 q -36 -339 -23 -339 q -77 -333 -57 -339 q -113 -321 -97 -328 q -139 -305 -129 -313 q -149 -291 -149 -297 q -139 -275 -149 -285 q -116 -253 -129 -264 q -87 -231 -102 -241 q -63 -216 -73 -221 q -18 -241 -41 -235 q 30 -247 4 -247 q 69 -234 50 -247 q 104 -190 88 -221 q 129 -106 120 -159 q 139 29 139 -52 l 139 454 q 137 510 139 489 q 126 542 135 531 q 98 560 117 554 q 44 569 79 565 l 44 596 q 94 607 72 601 q 136 620 116 613 q 175 634 156 626 q 215 651 194 642 l 241 651 l 241 67 m 261 854 q 254 818 261 835 q 238 789 248 801 q 213 769 227 776 q 183 762 199 762 q 138 778 152 762 q 125 826 125 795 q 131 862 125 845 q 148 892 137 879 q 172 911 158 904 q 203 919 187 919 q 261 854 261 919 "},"Z":{"x_min":40.015625,"x_max":672.125,"ha":726,"o":"m 672 198 q 669 150 670 177 q 667 97 668 124 q 665 45 666 70 q 663 0 664 19 l 59 0 l 40 30 l 522 787 l 210 787 q 187 779 200 787 q 162 755 174 772 q 139 714 149 739 q 120 653 128 688 l 82 661 l 101 865 q 135 859 120 861 q 165 855 150 856 q 195 855 179 855 l 648 855 l 665 825 l 187 68 l 541 68 q 567 74 556 68 q 589 96 579 80 q 611 139 600 112 q 634 208 621 166 l 672 198 "},"u":{"x_min":27.515625,"x_max":725.4375,"ha":736,"o":"m 725 55 q 677 25 700 39 q 634 1 654 11 q 599 -14 614 -8 q 576 -20 584 -20 q 538 11 553 -20 q 519 112 523 43 q 441 44 476 70 q 377 4 406 18 q 323 -14 347 -9 q 276 -20 298 -20 q 215 -11 244 -20 q 163 21 186 -2 q 128 85 141 44 q 115 189 115 125 l 115 482 q 112 532 115 514 q 102 559 110 550 q 76 572 93 568 q 27 579 58 575 l 27 606 q 73 613 51 608 q 114 622 94 617 q 155 635 134 627 q 197 651 175 642 l 217 624 l 217 226 q 224 147 217 179 q 244 96 231 115 q 277 69 257 77 q 320 61 296 61 q 365 67 342 61 q 412 87 388 73 q 462 123 436 101 q 519 177 489 145 l 519 482 q 515 530 519 512 q 502 559 512 549 q 473 573 492 569 q 424 579 455 577 l 424 606 q 517 625 472 612 q 600 651 562 638 l 621 624 l 621 172 q 624 104 621 130 q 636 70 627 77 q 664 68 644 65 q 718 86 684 71 l 725 55 "},"1":{"x_min":93.84375,"x_max":569.546875,"ha":652,"o":"m 114 0 l 114 35 q 203 49 167 42 q 259 65 238 57 q 289 81 280 73 q 298 96 298 89 l 298 637 q 295 679 298 664 q 285 703 293 694 q 270 710 281 707 q 237 712 258 713 q 184 707 216 711 q 108 694 152 703 l 93 728 q 161 751 122 736 q 240 781 200 765 q 316 815 280 798 q 374 844 352 831 l 400 820 l 400 96 q 407 82 400 90 q 433 66 414 74 q 485 50 452 58 q 569 35 518 42 l 569 0 l 114 0 "},"k":{"x_min":37.046875,"x_max":694.515625,"ha":695,"o":"m 37 0 l 37 29 q 106 49 81 40 q 132 70 132 58 l 132 878 q 128 926 132 909 q 114 952 124 943 q 84 963 103 960 q 37 969 66 966 l 37 996 q 129 1018 83 1006 q 208 1051 174 1031 l 234 1027 l 234 359 l 442 542 q 470 573 465 561 q 468 591 474 585 q 446 599 461 597 q 413 601 431 601 l 413 631 l 670 631 l 670 601 q 615 590 640 598 q 562 559 590 582 l 330 374 l 586 75 q 605 57 595 64 q 628 45 615 50 q 655 40 640 41 q 690 41 670 39 l 694 12 q 655 3 674 7 q 619 -1 636 0 q 589 -5 602 -4 q 569 -7 576 -7 q 523 1 541 -7 q 491 28 506 9 l 234 353 l 234 70 q 236 61 234 65 q 246 52 238 56 q 268 42 253 48 q 308 29 283 37 l 308 0 l 37 0 "},"€":{"x_min":16.28125,"x_max":627.359375,"ha":652,"o":"m 423 317 l 201 317 q 229 197 209 246 q 276 118 248 148 q 337 74 303 88 q 406 61 370 61 q 447 66 427 61 q 490 85 467 72 q 540 120 513 98 q 602 173 567 142 q 609 167 605 172 q 616 158 613 163 q 622 149 619 153 q 627 143 625 145 q 553 65 586 96 q 489 15 520 34 q 426 -11 458 -3 q 358 -20 395 -20 q 261 0 307 -20 q 181 61 216 20 q 122 166 145 102 q 93 317 99 230 l 31 317 l 16 333 q 23 355 19 344 q 31 378 27 367 l 91 378 l 91 380 q 95 466 91 425 l 51 466 l 36 482 q 43 504 40 493 q 51 527 47 516 l 103 527 q 147 661 118 603 q 218 759 176 719 q 313 818 260 798 q 429 838 366 838 q 489 832 463 838 q 538 817 516 827 q 578 796 560 808 q 614 769 596 784 q 612 756 618 766 q 595 733 606 746 q 573 707 585 720 q 553 686 561 694 l 529 690 q 497 719 512 706 q 464 742 482 732 q 424 757 446 752 q 372 763 402 763 q 323 752 349 763 q 274 716 297 742 q 231 643 250 689 q 203 527 212 598 l 444 527 l 461 511 l 444 466 l 198 466 q 197 436 197 451 q 196 405 196 421 l 196 378 l 423 378 l 440 362 l 423 317 "},"<":{"x_min":41.375,"x_max":568.34375,"ha":610,"o":"m 568 218 q 555 206 560 211 q 542 196 549 201 q 529 185 536 190 q 511 174 521 180 l 58 343 l 41 359 q 41 361 41 361 q 42 363 42 362 l 44 369 q 45 375 44 371 l 47 384 l 49 389 q 50 394 50 391 q 52 398 50 396 l 53 403 l 57 416 l 61 424 l 62 426 l 551 610 l 568 593 q 563 576 566 585 q 558 558 561 567 q 553 540 556 548 q 548 525 550 531 l 172 385 l 556 243 l 568 218 "},"t":{"x_min":13.265625,"x_max":458.453125,"ha":478,"o":"m 458 79 q 392 36 425 55 q 330 5 360 17 q 276 -13 301 -7 q 233 -20 250 -20 q 188 -11 209 -20 q 150 17 166 -2 q 124 70 134 37 q 115 150 115 102 l 115 567 l 27 567 l 13 585 l 66 631 l 115 631 l 115 797 l 195 868 l 217 851 l 217 631 l 438 631 l 458 611 q 443 591 452 602 q 424 571 434 580 q 405 553 415 561 q 389 543 396 545 q 340 559 373 551 q 252 567 307 567 l 217 567 l 217 208 q 220 140 217 167 q 233 97 224 113 q 256 74 242 81 q 290 68 269 68 q 349 77 313 68 q 438 114 385 86 l 458 79 "},"W":{"x_min":13.5625,"x_max":1154.328125,"ha":1181,"o":"m 1154 825 q 1104 814 1124 819 q 1073 803 1085 808 q 1057 793 1062 798 q 1051 783 1051 789 l 895 40 q 881 15 892 26 q 855 -2 870 5 q 826 -13 841 -9 q 801 -20 811 -17 l 580 640 l 385 40 q 369 15 381 26 q 343 -1 358 5 q 313 -12 328 -8 q 283 -20 297 -17 l 107 778 q 82 806 103 795 q 13 825 61 817 l 13 855 l 304 855 l 304 825 q 252 817 271 822 q 223 806 233 812 q 212 792 214 800 q 212 778 210 785 l 347 169 l 567 855 l 604 855 l 844 169 l 971 783 q 965 798 972 791 q 943 808 957 804 q 909 817 929 813 q 866 825 889 821 l 866 855 l 1154 855 l 1154 825 "},"v":{"x_min":13.5625,"x_max":670.765625,"ha":685,"o":"m 670 601 q 637 593 650 597 q 616 583 624 588 q 603 572 608 578 q 596 555 599 565 l 404 40 q 386 14 398 25 q 361 -2 375 4 q 334 -13 347 -9 q 312 -20 321 -17 l 88 555 q 65 584 82 574 q 13 601 47 594 l 13 631 l 275 631 l 275 601 q 232 595 248 598 q 206 586 215 591 q 196 574 197 581 q 198 555 194 566 l 365 121 l 522 555 q 524 573 525 565 q 515 585 523 580 q 492 594 507 590 q 451 601 476 597 l 451 631 l 670 631 l 670 601 "},">":{"x_min":41.375,"x_max":568.34375,"ha":610,"o":"m 568 424 q 559 391 564 411 q 547 355 553 371 l 58 174 l 41 190 q 46 206 43 197 q 51 224 48 215 q 56 242 54 234 q 62 257 59 251 l 436 397 l 52 539 l 41 565 q 71 588 56 578 q 98 610 86 599 l 552 440 l 568 424 "},"s":{"x_min":64.5,"x_max":474,"ha":536,"o":"m 474 192 q 460 109 474 144 q 425 51 446 75 q 377 13 403 28 q 325 -7 350 0 q 276 -17 299 -15 q 241 -20 254 -20 q 163 -7 208 -20 q 72 29 117 4 q 65 51 67 31 q 64 97 63 71 q 68 150 65 123 q 77 192 72 176 l 106 185 q 120 131 107 156 q 157 88 134 106 q 209 58 179 69 q 275 48 239 48 q 319 55 299 48 q 354 77 340 63 q 377 111 369 91 q 386 154 386 130 q 371 202 386 181 q 333 240 356 223 q 279 273 309 258 q 218 304 249 288 q 163 335 189 319 q 116 371 137 351 q 83 417 96 392 q 71 474 71 442 q 87 549 71 516 q 132 604 104 582 q 196 639 160 627 q 271 651 233 651 q 317 647 292 651 q 367 636 343 643 q 414 620 392 629 q 449 598 435 611 q 450 580 453 594 q 440 549 447 566 q 426 517 434 532 q 415 497 419 502 l 389 502 q 321 570 356 551 q 254 590 287 590 q 214 582 231 590 q 184 563 196 575 q 165 537 171 551 q 159 508 159 522 q 171 469 159 486 q 205 437 184 452 q 253 408 226 421 q 308 379 280 394 q 367 347 337 364 q 420 308 396 330 q 459 258 444 286 q 474 192 474 230 "},"B":{"x_min":27.5625,"x_max":689,"ha":764,"o":"m 280 818 q 261 817 270 818 q 241 817 251 817 l 241 492 l 264 492 q 389 507 341 492 q 463 546 437 522 q 499 599 490 569 q 509 658 509 629 q 497 721 509 692 q 460 772 486 750 q 389 805 433 793 q 280 818 346 818 m 352 441 q 292 437 320 441 q 241 430 265 434 l 241 70 q 247 59 241 64 q 273 53 258 55 q 304 49 288 51 q 335 47 319 48 q 364 47 350 47 q 452 59 413 47 q 520 94 491 72 q 563 148 548 116 q 578 218 578 180 q 564 294 578 255 q 524 366 551 334 q 454 420 496 399 q 352 441 411 441 m 689 241 q 666 137 689 183 q 602 57 643 90 q 504 7 561 25 q 378 -10 447 -10 q 343 -9 364 -10 q 298 -8 322 -9 q 250 -7 275 -7 q 201 -5 224 -6 q 83 0 144 -2 l 33 0 l 33 29 q 105 49 79 38 q 132 70 132 61 l 132 807 q 81 800 106 803 q 33 792 56 796 l 27 834 q 88 848 54 841 q 162 861 123 856 q 241 871 201 867 q 318 875 281 875 q 440 862 385 875 q 534 826 495 849 q 593 768 572 802 q 614 692 614 734 q 579 566 614 619 q 484 491 544 514 q 565 460 528 482 q 630 405 602 437 q 673 330 657 372 q 689 241 689 288 "},"?":{"x_min":54,"x_max":547,"ha":602,"o":"m 547 790 q 531 698 547 739 q 490 622 515 658 q 437 555 466 587 q 383 489 409 523 q 339 416 358 454 q 318 329 321 377 l 313 264 q 291 248 301 254 q 262 236 281 241 l 245 250 l 240 329 q 251 406 237 367 q 286 481 265 444 q 334 554 308 518 q 383 625 361 591 q 421 693 406 660 q 436 759 436 727 q 397 891 436 844 q 287 939 359 939 q 240 927 263 939 q 201 898 218 916 q 174 855 184 880 q 165 804 165 831 q 167 785 165 795 q 173 765 169 774 q 127 748 151 753 q 73 739 104 743 l 55 759 q 54 770 54 765 l 54 782 q 77 870 54 829 q 140 941 100 911 q 231 987 180 970 q 340 1004 283 1004 q 428 988 390 1004 q 493 944 467 972 q 533 877 519 916 q 547 790 547 837 m 365 83 q 357 39 365 59 q 338 4 350 19 q 308 -18 325 -10 q 271 -27 291 -27 q 219 -7 235 -27 q 204 48 204 12 q 211 91 204 71 q 231 127 218 111 q 261 151 244 142 q 298 160 279 160 q 348 140 331 160 q 365 83 365 120 "},"H":{"x_min":33.65625,"x_max":861.34375,"ha":908,"o":"m 33 0 l 33 29 q 105 49 79 38 q 132 70 132 61 l 132 783 q 107 804 132 791 q 33 825 82 816 l 33 855 l 339 855 l 339 825 q 267 804 293 816 q 241 783 241 793 l 241 478 l 654 478 l 654 783 q 629 804 654 791 q 555 825 604 816 l 555 855 l 861 855 l 861 825 q 789 804 815 816 q 763 783 763 793 l 763 70 q 787 50 763 62 q 861 29 812 38 l 861 0 l 555 0 l 555 29 q 627 49 601 38 q 654 70 654 61 l 654 417 l 241 417 l 241 70 q 265 50 241 62 q 339 29 289 38 l 339 0 l 33 0 "},"c":{"x_min":54,"x_max":569.71875,"ha":607,"o":"m 569 129 q 492 47 525 76 q 430 2 458 17 q 374 -16 401 -12 q 315 -20 347 -20 q 218 2 265 -20 q 134 65 171 24 q 76 166 98 106 q 54 301 54 226 q 80 438 54 374 q 154 548 107 501 q 263 623 200 596 q 400 651 326 651 q 445 647 422 651 q 490 636 469 643 q 530 619 512 629 q 559 597 548 609 q 557 574 560 588 q 548 542 554 559 q 534 510 541 525 q 520 485 527 495 l 495 492 q 478 519 490 504 q 446 546 465 533 q 400 567 427 559 q 339 576 373 576 q 270 560 303 576 q 211 512 237 544 q 171 433 186 480 q 156 322 156 385 q 173 217 156 264 q 219 137 190 170 q 285 85 248 103 q 364 68 323 68 q 399 69 383 68 q 435 80 415 71 q 479 106 454 89 q 543 156 505 124 l 569 129 "},"&":{"x_min":54,"x_max":912.4375,"ha":926,"o":"m 301 766 q 312 684 301 727 q 344 596 324 641 q 420 648 390 622 q 466 699 449 674 q 488 748 482 724 q 495 794 495 771 q 488 839 495 818 q 470 876 482 860 q 440 901 458 892 q 399 911 422 911 q 356 898 374 911 q 325 865 337 885 q 307 819 313 845 q 301 766 301 792 m 357 57 q 463 75 415 57 q 550 124 511 93 q 480 200 516 159 q 410 286 444 241 q 344 379 376 331 q 288 476 313 427 q 229 419 253 446 q 191 363 206 391 q 170 308 176 336 q 164 253 164 281 q 180 168 164 205 q 223 107 196 132 q 285 69 250 82 q 357 57 320 57 m 912 507 q 878 472 895 486 q 845 447 862 458 q 817 458 833 453 q 785 466 801 462 q 755 472 770 470 q 728 475 740 474 q 740 452 736 462 q 747 429 744 441 q 750 402 749 417 q 751 368 751 388 q 729 266 751 320 q 670 162 708 213 q 756 86 717 117 q 812 57 782 64 q 881 60 841 50 l 887 30 q 787 -7 828 5 q 732 -20 747 -20 q 680 7 717 -20 q 594 81 643 34 q 476 8 541 36 q 337 -20 411 -20 q 222 -3 274 -20 q 132 45 169 13 q 74 126 95 78 q 54 239 54 175 q 67 316 54 277 q 106 394 81 355 q 170 470 132 433 q 257 542 208 507 q 226 637 238 590 q 215 728 215 683 q 233 830 215 783 q 282 911 251 876 q 352 964 312 945 q 434 984 392 984 q 507 970 478 984 q 555 933 537 956 q 581 879 573 909 q 589 816 589 849 q 544 683 589 745 q 419 571 500 621 q 395 555 406 562 q 372 539 383 547 q 425 451 396 495 q 488 364 455 407 q 556 282 521 322 q 625 206 591 241 q 657 275 646 240 q 669 340 669 309 q 659 393 669 368 q 634 437 650 419 q 599 467 619 456 q 560 478 580 478 l 545 497 q 567 516 553 506 q 595 532 582 526 l 896 532 l 912 507 "},"I":{"x_min":47.65625,"x_max":353.34375,"ha":414,"o":"m 47 0 l 47 29 q 119 49 93 38 q 146 70 146 61 l 146 783 q 121 804 146 791 q 47 825 96 816 l 47 855 l 353 855 l 353 825 q 281 804 307 816 q 255 783 255 793 l 255 70 q 279 50 255 62 q 353 29 304 38 l 353 0 l 47 0 "},"G":{"x_min":47,"x_max":777.203125,"ha":810,"o":"m 707 805 q 705 792 711 802 q 688 770 699 782 q 663 746 677 757 q 641 726 650 734 l 619 730 q 573 765 596 751 q 523 786 549 778 q 467 796 497 793 q 405 800 438 800 q 362 792 388 800 q 309 767 337 784 q 253 721 281 749 q 202 652 225 693 q 165 556 179 611 q 152 431 152 502 q 177 267 152 337 q 243 152 202 197 q 334 83 283 106 q 437 61 385 61 q 528 70 487 61 q 604 98 570 80 l 604 328 q 597 343 604 336 q 575 357 591 350 q 532 370 559 364 q 464 384 505 377 l 464 413 l 777 413 l 777 384 q 722 359 738 375 q 706 328 706 344 l 706 104 q 615 38 655 63 q 542 1 576 14 q 479 -15 509 -11 q 419 -20 449 -20 q 284 5 350 -20 q 164 82 217 30 q 79 212 112 134 q 47 394 47 289 q 82 596 47 507 q 180 747 118 685 q 324 842 241 809 q 499 875 406 875 q 549 870 522 875 q 603 856 575 865 q 658 834 631 847 q 707 805 685 821 "},"(":{"x_min":82,"x_max":413.359375,"ha":440,"o":"m 391 -214 q 257 -115 315 -178 q 160 31 199 -51 q 101 214 121 114 q 82 422 82 314 q 103 637 82 533 q 166 828 125 741 q 264 982 207 916 q 391 1085 321 1048 l 413 1054 q 329 958 369 1017 q 261 819 290 898 q 214 645 231 741 q 197 441 197 549 q 211 248 197 342 q 253 72 225 154 q 321 -74 281 -9 q 413 -183 361 -140 l 391 -214 "},"`":{"x_min":20.34375,"x_max":297.0625,"ha":443,"o":"m 297 731 q 280 719 290 725 q 259 710 270 713 l 20 965 l 35 993 q 55 997 42 995 q 83 1002 68 999 q 111 1007 97 1005 q 134 1010 126 1009 l 297 731 "},"U":{"x_min":33.65625,"x_max":864.34375,"ha":908,"o":"m 864 825 q 792 804 818 816 q 766 783 766 793 l 766 355 q 744 197 766 266 q 681 79 722 127 q 582 5 641 30 q 451 -20 524 -20 q 322 0 381 -20 q 221 58 264 18 q 155 158 179 98 q 132 301 132 218 l 132 783 q 107 804 132 791 q 33 825 82 816 l 33 855 l 339 855 l 339 825 q 267 804 293 816 q 241 783 241 793 l 241 335 q 256 218 241 270 q 301 131 271 167 q 375 76 331 95 q 478 58 419 58 q 563 81 526 58 q 626 142 600 104 q 664 229 651 180 q 678 327 678 277 l 678 783 q 653 804 678 791 q 579 825 628 816 l 579 855 l 864 855 l 864 825 "},"F":{"x_min":33.65625,"x_max":608.59375,"ha":664,"o":"m 33 0 l 33 29 q 105 49 79 38 q 132 70 132 61 l 132 783 q 107 804 132 791 q 33 825 82 816 l 33 855 l 587 855 l 608 838 q 605 799 607 820 q 598 757 602 778 q 590 717 595 736 q 582 685 586 698 l 550 685 q 545 737 548 716 q 534 771 541 758 q 517 788 527 783 q 494 794 507 794 l 241 794 l 241 499 l 494 499 l 514 480 q 500 459 508 470 q 483 438 491 448 q 465 418 474 427 q 450 404 457 410 q 428 421 440 414 q 402 433 417 428 q 366 439 386 437 q 316 442 345 442 l 241 442 l 241 70 q 267 52 241 62 q 359 29 293 42 l 359 0 l 33 0 "},"r":{"x_min":37.046875,"x_max":528.015625,"ha":550,"o":"m 522 625 q 528 602 528 621 q 522 556 527 582 q 509 503 517 530 q 493 458 501 476 l 463 458 q 452 504 459 485 q 435 534 444 523 q 413 550 425 545 q 388 556 401 556 q 353 543 373 556 q 312 504 333 530 q 270 435 291 477 q 234 336 250 393 l 234 70 q 259 49 234 60 q 348 29 284 38 l 348 0 l 37 0 l 37 29 q 106 49 81 39 q 132 70 132 59 l 132 465 q 130 502 132 487 q 127 527 129 518 q 122 542 125 537 q 116 551 119 547 q 105 559 111 556 q 90 564 100 562 q 68 567 81 566 q 37 569 56 568 l 37 596 q 123 620 81 608 q 200 651 166 632 l 224 627 l 233 473 q 272 543 250 510 q 318 599 293 575 q 369 637 342 623 q 425 651 396 651 q 472 645 446 651 q 522 625 497 640 "},":":{"x_min":89,"x_max":250,"ha":318,"o":"m 250 83 q 242 39 250 59 q 223 4 235 19 q 193 -18 210 -10 q 156 -27 176 -27 q 104 -7 120 -27 q 89 48 89 12 q 96 91 89 71 q 116 127 103 111 q 146 151 129 142 q 183 160 164 160 q 233 140 216 160 q 250 83 250 120 m 250 575 q 242 531 250 551 q 223 496 235 511 q 193 473 210 481 q 156 464 176 464 q 104 484 120 464 q 89 540 89 504 q 96 583 89 563 q 116 618 103 603 q 146 642 129 634 q 183 651 164 651 q 233 631 216 651 q 250 575 250 611 "},"x":{"x_min":13.5625,"x_max":689.078125,"ha":699,"o":"m 416 0 l 416 29 q 448 33 433 30 q 471 41 463 35 q 480 59 480 48 q 466 88 480 70 l 332 271 l 204 88 q 193 59 191 70 q 208 41 196 48 q 237 33 219 35 q 270 29 254 30 l 270 0 l 13 0 l 13 29 q 59 39 40 33 q 91 54 78 45 q 114 72 105 62 q 130 92 123 82 l 295 322 l 136 540 q 118 563 127 553 q 97 581 109 574 q 66 594 84 589 q 21 602 48 599 l 21 631 l 305 631 l 305 602 q 269 596 284 599 q 246 586 254 592 q 239 569 238 579 q 252 542 240 558 l 362 391 l 466 542 q 480 569 478 558 q 474 586 481 580 q 452 596 467 593 q 416 602 437 599 l 416 631 l 674 631 l 674 602 q 589 581 619 597 q 541 540 559 566 l 399 340 l 580 92 q 598 72 588 82 q 620 54 607 62 q 649 38 632 45 q 689 29 666 31 l 689 0 l 416 0 "},"*":{"x_min":47.46875,"x_max":573.78125,"ha":621,"o":"m 331 805 l 508 938 q 542 917 522 929 q 572 893 561 904 l 573 865 l 352 770 l 556 682 q 554 642 555 665 q 548 604 554 619 l 523 588 l 332 732 l 358 512 q 341 503 350 508 q 323 494 333 498 q 304 486 313 489 q 287 481 295 482 l 261 493 l 289 732 l 112 599 q 95 609 105 603 q 77 621 86 615 q 61 633 69 627 q 48 644 53 639 l 47 673 l 268 768 l 63 856 q 64 874 64 864 q 65 896 65 885 q 67 916 66 907 q 71 933 69 926 l 95 949 l 288 805 l 262 1026 q 279 1035 269 1030 q 298 1044 288 1040 q 318 1053 308 1049 q 335 1059 327 1056 l 359 1044 l 331 805 "},"V":{"x_min":13.5625,"x_max":874.90625,"ha":903,"o":"m 874 825 q 802 808 828 817 q 769 781 776 800 l 510 40 q 491 14 504 25 q 462 -2 478 4 q 432 -13 446 -9 q 408 -20 417 -17 l 109 781 q 79 809 103 798 q 13 825 56 820 l 13 855 l 308 855 l 308 825 q 234 811 254 821 q 221 782 214 802 l 461 138 l 689 781 q 672 809 696 800 q 592 825 648 819 l 592 855 l 874 855 l 874 825 "},"h":{"x_min":37.046875,"x_max":745.953125,"ha":766,"o":"m 454 0 l 454 29 q 525 51 502 42 q 549 70 549 61 l 549 429 q 543 496 549 470 q 528 537 538 522 q 500 557 517 552 q 462 563 484 563 q 411 550 438 563 q 353 514 383 538 q 293 455 324 491 q 234 372 263 419 l 234 70 q 259 49 234 60 q 328 29 284 38 l 328 0 l 37 0 l 37 29 q 106 49 81 40 q 132 70 132 58 l 132 880 q 129 924 132 908 q 117 949 127 940 q 88 961 107 958 q 37 969 69 965 l 37 996 q 88 1007 65 1002 q 132 1019 112 1013 q 170 1033 152 1025 q 208 1051 189 1040 l 234 1027 l 233 463 q 298 541 262 507 q 370 600 334 576 q 440 638 406 625 q 501 651 474 651 q 557 642 530 651 q 605 615 584 633 q 638 568 625 596 q 651 502 651 540 l 651 70 q 671 51 651 61 q 745 29 692 42 l 745 0 l 454 0 "},"0":{"x_min":52,"x_max":600,"ha":652,"o":"m 489 383 q 474 547 489 476 q 435 664 459 617 q 379 735 411 711 q 312 760 347 760 q 250 741 278 760 q 203 683 222 722 q 173 583 184 644 q 163 437 163 522 q 176 273 163 344 q 213 154 190 202 q 269 82 236 106 q 339 58 301 58 q 402 76 374 58 q 449 134 430 95 q 478 236 468 174 q 489 383 489 297 m 600 408 q 579 243 600 321 q 521 106 558 165 q 430 14 483 48 q 312 -20 377 -20 q 199 14 248 -20 q 118 106 150 48 q 68 243 85 165 q 52 408 52 321 q 73 574 52 496 q 131 710 94 652 q 222 803 169 769 q 339 838 274 838 q 452 804 403 838 q 533 711 501 770 q 583 575 566 653 q 600 408 600 496 "},".":{"x_min":89,"x_max":250,"ha":318,"o":"m 250 83 q 242 39 250 59 q 223 4 235 19 q 193 -18 210 -10 q 156 -27 176 -27 q 104 -7 120 -27 q 89 48 89 12 q 96 91 89 71 q 116 127 103 111 q 146 151 129 142 q 183 160 164 160 q 233 140 216 160 q 250 83 250 120 "},"@":{"x_min":47,"x_max":1073,"ha":1120,"o":"m 688 495 q 645 554 669 533 q 582 576 622 576 q 514 560 544 576 q 460 512 483 544 q 426 433 438 480 q 414 322 414 385 q 427 217 414 264 q 463 137 441 170 q 510 85 484 103 q 559 68 536 68 q 584 72 572 68 q 611 88 597 76 q 643 119 625 99 q 688 169 662 139 l 688 495 m 1073 372 q 1059 261 1073 313 q 1023 166 1046 209 q 971 88 1001 123 q 910 29 942 53 q 846 -7 878 5 q 784 -20 813 -20 q 753 -12 768 -20 q 726 9 738 -5 q 705 50 714 25 q 692 110 696 74 q 642 46 664 71 q 601 6 621 21 q 559 -14 580 -8 q 511 -20 538 -20 q 441 2 476 -20 q 377 65 405 24 q 330 166 348 106 q 312 301 312 226 q 321 381 312 339 q 347 461 330 422 q 391 534 365 499 q 449 595 417 568 q 520 636 481 621 q 603 651 559 651 q 631 648 618 651 q 657 639 644 646 q 684 620 669 632 q 715 588 698 608 q 751 614 733 599 q 789 651 770 629 l 810 630 q 800 588 804 611 q 793 543 796 568 q 790 490 790 518 l 790 193 q 810 103 790 132 q 862 74 830 74 q 902 95 879 74 q 944 153 924 116 q 978 240 964 190 q 992 347 992 290 q 962 550 992 461 q 881 699 933 639 q 758 791 829 759 q 600 823 686 823 q 470 805 530 823 q 359 756 410 787 q 270 681 309 724 q 204 585 231 637 q 163 475 177 533 q 149 355 149 416 q 166 202 149 273 q 214 72 183 131 q 288 -31 245 14 q 382 -108 331 -77 q 492 -156 434 -140 q 612 -173 550 -173 q 723 -161 668 -173 q 824 -131 778 -149 q 907 -93 871 -113 q 964 -55 944 -73 l 982 -92 q 919 -147 958 -118 q 829 -199 880 -175 q 714 -238 778 -222 q 578 -254 651 -254 q 364 -214 462 -254 q 196 -99 266 -174 q 86 79 125 -25 q 47 315 47 185 q 67 465 47 392 q 126 604 88 539 q 217 725 164 670 q 334 819 270 779 q 472 881 398 859 q 626 904 546 904 q 809 869 727 904 q 950 768 891 835 q 1041 601 1009 701 q 1073 372 1073 502 "},"f":{"x_min":30.875,"x_max":554.734375,"ha":432,"o":"m 554 985 q 544 969 554 980 q 521 947 535 958 q 493 925 507 935 q 468 910 478 915 q 435 935 452 924 q 403 952 419 945 q 375 962 388 959 q 353 966 362 966 q 315 954 335 966 q 278 911 295 942 q 249 826 261 880 q 238 689 238 773 l 238 631 l 412 631 l 432 611 q 417 591 426 602 q 399 571 408 580 q 381 553 389 561 q 366 543 372 545 q 321 559 350 551 q 238 567 292 567 l 238 69 q 245 61 238 65 q 269 52 252 57 q 312 42 286 48 q 379 29 339 36 l 379 0 l 41 0 l 41 29 q 111 49 87 37 q 136 69 136 61 l 136 567 l 45 567 l 30 585 l 83 631 l 136 631 l 136 652 q 146 786 136 731 q 176 878 157 841 q 219 941 195 916 q 271 988 244 967 q 311 1015 289 1003 q 354 1034 332 1026 q 395 1046 375 1042 q 427 1051 414 1051 q 470 1042 448 1051 q 511 1024 493 1034 q 542 1002 530 1013 q 554 985 554 991 "},";":{"x_min":59.40625,"x_max":264,"ha":318,"o":"m 264 47 q 253 -12 264 20 q 223 -80 243 -45 q 175 -147 203 -114 q 112 -207 147 -180 l 81 -183 q 114 -141 100 -161 q 136 -99 127 -120 q 148 -53 144 -77 q 153 0 153 -29 q 133 47 153 29 q 70 62 113 64 l 59 94 q 85 112 65 102 q 128 133 104 123 q 174 149 151 142 q 209 155 197 155 q 252 112 241 139 q 264 47 264 86 m 250 575 q 242 531 250 551 q 223 496 235 511 q 193 473 210 481 q 156 464 176 464 q 104 484 120 464 q 89 540 89 504 q 96 583 89 563 q 116 618 103 603 q 146 642 129 634 q 183 651 164 651 q 233 631 216 651 q 250 575 250 611 "},"i":{"x_min":47.046875,"x_max":338.953125,"ha":376,"o":"m 47 0 l 47 29 q 117 49 93 38 q 142 70 142 61 l 142 454 q 140 510 142 488 q 130 543 139 531 q 102 560 121 555 q 47 569 83 566 l 47 596 q 91 606 68 600 q 137 619 114 612 q 182 634 161 626 q 220 651 203 642 l 244 651 l 244 70 q 266 50 244 62 q 338 29 289 38 l 338 0 l 47 0 m 264 854 q 257 818 264 835 q 241 789 251 801 q 216 769 230 776 q 185 762 202 762 q 141 778 154 762 q 128 826 128 795 q 134 862 128 845 q 151 892 140 879 q 176 911 162 904 q 206 919 190 919 q 264 854 264 919 "},"6":{"x_min":75,"x_max":598,"ha":652,"o":"m 339 447 q 263 427 305 447 q 184 363 221 408 q 197 223 184 282 q 234 126 210 165 q 293 69 259 88 q 370 51 328 51 q 430 68 406 51 q 469 112 454 85 q 489 171 483 139 q 496 235 496 204 q 480 340 496 299 q 442 405 465 381 q 392 437 419 428 q 339 447 364 447 m 598 279 q 590 213 598 247 q 569 145 583 178 q 533 82 554 112 q 483 29 511 52 q 420 -6 455 7 q 343 -20 385 -20 q 239 4 288 -20 q 153 74 190 29 q 96 181 117 118 q 75 320 75 244 q 102 504 75 416 q 187 662 130 592 q 330 781 244 733 q 535 847 417 830 l 548 807 q 406 751 468 788 q 299 666 343 714 q 227 559 255 617 q 190 440 200 501 q 238 479 213 463 q 286 504 263 494 q 330 517 309 513 q 367 522 351 522 q 465 505 422 522 q 537 456 507 488 q 582 380 566 425 q 598 279 598 335 "},"A":{"x_min":0,"x_max":812.515625,"ha":827,"o":"m 514 363 l 394 711 l 278 363 l 514 363 m 258 302 l 183 75 q 201 44 176 54 q 282 29 226 35 l 282 0 l 0 0 l 0 29 q 73 46 46 37 q 107 75 100 54 l 359 838 q 398 869 375 855 q 438 893 421 883 l 723 75 q 733 58 727 65 q 749 45 739 50 q 775 35 759 40 q 812 29 790 31 l 812 0 l 526 0 l 526 29 q 599 42 579 32 q 612 75 619 52 l 535 302 l 258 302 "},"n":{"x_min":37.046875,"x_max":745.953125,"ha":766,"o":"m 454 0 l 454 29 q 525 51 502 42 q 549 70 549 61 l 549 429 q 544 496 549 470 q 529 537 539 522 q 502 557 519 552 q 462 563 486 563 q 415 552 441 563 q 360 520 389 542 q 298 461 330 497 q 234 372 266 425 l 234 70 q 259 49 234 60 q 328 29 284 38 l 328 0 l 37 0 l 37 29 q 106 49 81 40 q 132 70 132 59 l 132 482 q 129 524 132 508 q 118 548 127 540 q 90 561 109 557 q 37 570 71 565 l 37 597 q 122 618 83 604 q 199 651 161 632 l 223 627 l 231 458 q 296 539 260 503 q 369 599 332 575 q 440 637 406 624 q 501 651 474 651 q 557 642 530 651 q 605 615 584 633 q 638 568 625 596 q 651 502 651 540 l 651 70 q 671 51 651 61 q 745 29 692 42 l 745 0 l 454 0 "},"O":{"x_min":47,"x_max":772,"ha":834,"o":"m 667 426 q 658 519 667 473 q 634 606 650 565 q 596 682 618 647 q 544 742 573 716 q 482 782 516 767 q 409 797 448 797 q 301 771 349 797 q 220 698 253 746 q 169 584 187 651 q 152 434 152 517 q 172 290 152 358 q 228 171 193 223 q 310 90 263 120 q 409 61 357 61 q 513 84 465 61 q 594 153 560 107 q 647 268 628 200 q 667 426 667 337 m 772 439 q 741 263 772 346 q 658 117 710 180 q 536 17 605 54 q 389 -20 467 -20 q 244 15 308 -20 q 136 112 180 51 q 70 251 93 172 q 47 415 47 329 q 76 590 47 507 q 158 737 106 674 q 279 837 209 800 q 429 875 349 875 q 577 838 513 875 q 684 740 640 801 q 749 600 727 679 q 772 439 772 521 "},"3":{"x_min":46.109375,"x_max":560,"ha":652,"o":"m 560 258 q 541 150 560 201 q 487 62 523 100 q 398 2 451 24 q 275 -20 345 -20 q 221 -15 248 -20 q 164 1 193 -10 q 106 32 135 13 q 46 81 76 52 l 69 126 q 125 88 99 103 q 173 64 150 73 q 218 51 195 55 q 266 48 240 48 q 341 61 307 48 q 400 98 375 74 q 437 158 424 123 q 451 236 451 193 q 434 322 451 287 q 394 380 418 358 q 338 413 369 403 q 277 423 307 423 l 263 423 q 255 422 259 423 q 246 420 251 421 q 231 418 241 420 l 222 458 q 321 498 284 475 q 379 544 359 520 q 405 592 399 568 q 412 637 412 616 q 404 685 412 661 q 382 730 397 710 q 344 764 367 751 q 288 777 321 777 q 240 767 261 777 q 204 741 218 758 q 184 704 190 725 q 182 660 178 683 q 138 642 159 648 q 88 633 117 635 l 70 654 q 91 715 70 683 q 147 774 112 747 q 229 820 182 802 q 327 838 275 838 q 414 821 378 838 q 474 778 450 805 q 509 718 498 751 q 521 650 521 684 q 510 599 521 624 q 482 551 500 574 q 436 508 463 528 q 376 473 409 488 q 448 450 415 469 q 506 402 482 431 q 545 337 531 374 q 560 258 560 300 "},"]":{"x_min":27.4375,"x_max":332,"ha":428,"o":"m 51 -227 l 28 -207 q 35 -174 30 -191 q 45 -149 41 -157 l 237 -149 l 237 1007 l 51 1007 l 27 1024 q 35 1056 29 1039 q 45 1085 41 1073 l 332 1085 l 332 -227 l 51 -227 "},"m":{"x_min":37.046875,"x_max":1095.640625,"ha":1115,"o":"m 803 0 l 803 29 q 875 51 852 42 q 898 70 898 61 l 898 429 q 893 498 898 470 q 880 541 889 525 q 856 563 870 557 q 821 570 841 570 q 774 557 799 570 q 722 521 749 544 q 669 464 696 498 q 617 388 642 430 l 617 70 q 638 51 617 61 q 712 29 659 42 l 712 0 l 420 0 l 420 29 q 492 51 469 42 q 515 70 515 61 l 515 429 q 510 498 515 470 q 497 541 506 525 q 474 563 488 557 q 438 570 459 570 q 341 522 392 570 q 234 388 291 475 l 234 70 q 259 49 234 60 q 328 29 284 38 l 328 0 l 37 0 l 37 29 q 106 49 81 40 q 132 70 132 59 l 132 482 q 129 525 132 509 q 117 549 127 540 q 88 561 107 557 q 37 570 69 565 l 37 597 q 84 606 62 601 q 125 619 106 612 q 163 634 145 626 q 199 651 181 642 l 223 627 l 231 471 q 292 550 261 516 q 354 606 323 583 q 413 639 385 628 q 466 651 441 651 q 526 643 498 651 q 573 616 553 635 q 605 567 593 598 q 617 491 617 537 l 616 477 q 675 552 645 520 q 736 606 706 584 q 795 639 766 628 q 849 651 824 651 q 909 642 881 651 q 956 615 936 633 q 988 568 976 596 q 1000 502 1000 540 l 1000 70 q 1021 51 1000 61 q 1095 29 1042 42 l 1095 0 l 803 0 "},"9":{"x_min":68,"x_max":590,"ha":652,"o":"m 326 377 q 412 403 373 377 q 481 471 452 429 q 463 612 479 555 q 424 703 447 669 q 371 751 400 737 q 315 766 342 766 q 254 752 281 766 q 208 713 226 738 q 179 654 189 688 q 170 580 170 620 q 185 478 170 518 q 223 416 200 439 q 274 385 246 393 q 326 377 301 377 m 590 495 q 562 304 590 392 q 477 147 534 215 q 333 33 420 79 q 128 -29 246 -12 l 116 11 q 272 70 206 33 q 381 155 337 106 q 447 263 424 203 q 478 391 471 323 q 438 354 459 371 q 392 326 416 337 q 344 308 369 314 q 297 302 320 302 q 200 319 242 302 q 128 369 158 337 q 83 444 99 401 q 68 539 68 488 q 77 608 68 572 q 103 677 86 644 q 145 739 120 710 q 200 790 170 768 q 267 824 231 811 q 343 837 303 837 q 435 817 390 837 q 514 756 479 797 q 569 649 548 714 q 590 495 590 585 "},"l":{"x_min":40.265625,"x_max":345.734375,"ha":376,"o":"m 40 0 l 40 29 q 89 38 69 33 q 120 49 108 44 q 136 59 131 54 q 142 70 142 65 l 142 878 q 137 926 142 909 q 123 951 133 943 q 93 963 112 960 q 47 969 75 966 l 47 996 q 136 1017 95 1006 q 219 1051 177 1029 l 244 1027 l 244 70 q 267 49 244 60 q 345 29 290 38 l 345 0 l 40 0 "},"8":{"x_min":64,"x_max":588,"ha":652,"o":"m 186 644 q 200 592 186 614 q 239 553 215 570 q 295 521 264 535 q 361 491 327 506 q 431 563 410 527 q 452 636 452 599 q 441 697 452 671 q 411 740 430 723 q 365 765 393 757 q 305 774 338 774 q 252 762 274 774 q 215 732 230 750 q 193 690 201 713 q 186 644 186 667 m 479 210 q 463 286 479 254 q 421 341 447 318 q 362 381 395 364 q 294 414 329 398 q 239 367 262 390 q 201 321 216 345 q 180 271 187 297 q 173 214 173 244 q 184 148 173 178 q 217 95 195 117 q 269 60 239 73 q 339 48 300 48 q 403 62 376 48 q 446 99 429 76 q 471 151 463 122 q 479 210 479 180 m 588 239 q 565 139 588 186 q 504 56 543 92 q 414 0 465 21 q 306 -20 363 -20 q 202 -2 247 -20 q 127 45 158 15 q 79 113 95 74 q 64 193 64 151 q 76 264 64 230 q 112 329 89 298 q 168 387 135 360 q 242 437 201 414 q 187 466 213 450 q 141 504 161 483 q 110 554 121 526 q 99 620 99 582 q 117 707 99 667 q 168 776 136 747 q 245 821 201 805 q 340 838 289 838 q 431 824 391 838 q 498 787 470 810 q 539 730 525 763 q 554 657 554 696 q 543 603 554 629 q 514 554 533 578 q 471 509 496 531 q 415 466 445 488 q 480 430 449 450 q 535 383 512 410 q 573 321 559 356 q 588 239 588 285 "},"p":{"x_min":37.046875,"x_max":682,"ha":736,"o":"m 590 288 q 576 398 590 347 q 539 486 562 449 q 485 544 516 523 q 422 566 455 566 q 390 558 410 566 q 345 533 370 551 q 292 486 320 515 q 234 413 263 456 l 234 144 q 290 106 264 121 q 339 83 316 91 q 382 71 362 74 q 421 68 402 68 q 488 82 457 68 q 541 124 519 96 q 577 193 564 152 q 590 288 590 234 m 682 333 q 671 253 682 294 q 643 172 661 211 q 601 97 626 133 q 548 36 577 62 q 487 -4 519 10 q 422 -20 455 -20 q 332 2 382 -20 q 234 66 282 24 l 234 -254 q 259 -276 234 -265 q 348 -296 284 -287 l 348 -326 l 37 -326 l 37 -296 q 106 -276 81 -286 q 132 -254 132 -266 l 132 481 q 129 522 132 506 q 116 549 126 539 q 88 563 106 558 q 37 569 69 567 l 37 596 q 81 606 60 601 q 121 619 102 612 q 160 633 141 625 q 200 651 180 641 l 223 627 l 230 492 q 298 563 263 533 q 363 612 332 593 q 421 641 394 632 q 468 651 448 651 q 553 629 514 651 q 621 566 593 607 q 666 466 650 525 q 682 333 682 407 "},"4":{"x_min":37.53125,"x_max":593.046875,"ha":652,"o":"m 397 705 l 144 312 l 397 312 l 397 705 m 593 291 q 566 259 578 269 q 539 237 555 248 l 492 237 l 492 70 q 496 60 492 65 q 510 51 500 56 q 540 40 521 46 q 586 29 558 35 l 586 0 l 254 0 l 254 29 q 326 43 298 36 q 369 55 354 49 q 391 66 385 60 q 397 77 397 71 l 397 237 l 59 237 l 37 259 l 373 795 q 424 820 402 808 q 466 844 447 833 l 492 820 l 492 312 l 575 312 l 593 291 "},"R":{"x_min":27.5625,"x_max":771.921875,"ha":779,"o":"m 33 0 l 33 29 q 105 49 79 38 q 132 70 132 61 l 132 806 q 83 799 108 803 q 33 792 58 795 l 27 834 q 91 849 59 842 q 159 862 124 856 q 233 871 195 868 q 317 875 272 875 q 454 859 396 875 q 551 815 512 843 q 609 750 590 788 q 628 669 628 712 q 614 580 628 620 q 574 510 600 541 q 514 458 549 480 q 436 423 478 436 l 642 93 q 664 70 652 78 q 690 56 676 61 q 723 52 705 52 q 764 53 741 51 l 771 24 q 686 0 727 9 q 620 -10 646 -10 q 581 1 600 -10 q 553 27 563 12 l 348 408 q 331 406 339 406 l 312 406 q 277 408 295 406 q 241 414 259 410 l 241 70 q 265 50 241 62 q 339 29 289 38 l 339 0 l 33 0 m 293 818 q 241 816 267 818 l 241 468 q 272 464 259 465 q 301 464 286 464 q 465 511 408 464 q 523 648 523 558 q 509 716 523 685 q 468 770 496 748 q 396 805 440 792 q 293 818 353 818 "},"o":{"x_min":54,"x_max":645,"ha":699,"o":"m 540 308 q 522 410 540 362 q 476 495 504 458 q 413 554 448 532 q 343 576 378 576 q 256 556 291 576 q 199 502 220 536 q 168 421 178 468 q 159 320 159 375 q 178 219 159 267 q 226 134 197 170 q 289 76 254 97 q 355 55 324 55 q 438 72 403 55 q 495 124 473 90 q 529 203 518 157 q 540 308 540 250 m 645 329 q 633 240 645 283 q 601 158 621 196 q 552 86 581 119 q 489 30 524 53 q 416 -6 455 6 q 336 -20 378 -20 q 220 4 272 -20 q 131 71 168 28 q 74 173 94 114 q 54 301 54 232 q 65 389 54 346 q 96 471 76 432 q 144 543 116 510 q 207 600 172 576 q 281 637 241 623 q 363 651 320 651 q 478 626 426 651 q 567 559 530 602 q 624 457 604 516 q 645 329 645 398 "},"5":{"x_min":52.421875,"x_max":567,"ha":652,"o":"m 567 278 q 548 165 567 219 q 496 70 530 111 q 411 4 462 28 q 297 -20 361 -20 q 173 3 234 -20 q 52 81 111 26 l 76 126 q 141 86 112 101 q 196 62 171 71 q 242 51 221 54 q 283 48 263 48 q 359 64 327 48 q 414 109 392 81 q 447 174 436 138 q 458 248 458 210 q 446 332 458 294 q 412 397 435 370 q 355 439 390 424 q 272 454 320 454 q 240 450 258 454 q 201 440 221 447 q 161 423 181 433 q 124 399 141 413 l 92 422 q 101 478 96 446 q 113 546 107 511 q 124 620 118 582 q 135 693 130 658 q 143 761 139 729 q 148 817 146 793 l 443 817 q 478 818 463 817 q 504 823 493 820 q 526 829 516 825 l 545 809 q 528 786 538 798 q 508 764 518 774 q 488 744 498 753 q 470 729 478 735 l 207 729 q 202 678 206 709 q 195 615 199 647 q 186 554 190 583 q 178 511 181 526 q 242 524 205 519 q 313 529 278 529 q 422 508 375 529 q 501 453 469 487 q 550 373 533 418 q 567 278 567 327 "}}}
